<?xml version="1.0" standalone="no"?>
<!DOCTYPE svg PUBLIC "-//W3C//DTD SVG 20010904//EN"
 "http://www.w3.org/TR/2001/REC-SVG-20010904/DTD/svg10.dtd">
<svg version="1.0" xmlns="http://www.w3.org/2000/svg"
 width="150.000000pt" height="150.000000pt" viewBox="0 0 150.000000 150.000000"
 preserveAspectRatio="xMidYMid meet">

<g transform="translate(0.000000,150.000000) scale(0.100000,-0.100000)"
fill="#000000" stroke="none">
<path d="M655 1358 c-92 -7 -232 -38 -263 -58 -16 -11 -16 -11 1 -6 9 3 17 2
17 -2 0 -4 -24 -16 -52 -27 -76 -28 -78 -28 -28 -1 54 30 48 33 -14 6 -93 -39
-256 -163 -256 -194 0 -5 21 12 47 38 45 46 142 116 160 116 4 0 -13 -13 -38
-29 -25 -16 -73 -54 -107 -86 -33 -31 -64 -55 -68 -53 -5 2 -17 -12 -28 -31
-19 -33 -17 -32 55 23 113 87 292 172 414 198 145 29 294 22 427 -22 76 -25
97 -37 102 -53 6 -24 -17 -195 -38 -272 -11 -45 -13 -48 -20 -25 -24 79 -80
209 -101 232 -27 31 -83 68 -104 68 -7 0 -35 -16 -63 -36 -38 -28 -56 -51 -79
-103 -48 -104 -69 -170 -69 -221 0 -36 -5 -52 -23 -68 -13 -12 -29 -22 -35
-22 -7 0 -12 -4 -12 -9 0 -4 -14 -12 -32 -17 -30 -9 -32 -14 -69 -139 -44
-148 -43 -147 -24 -121 14 19 15 19 15 -7 0 -18 11 -34 36 -53 20 -16 38 -39
41 -56 6 -28 23 -49 23 -28 0 6 4 9 9 5 14 -8 23 29 15 59 -6 25 -4 26 34 26
38 0 41 -2 53 -37 36 -113 51 -143 70 -143 17 0 19 8 19 69 0 49 -4 72 -15 81
-29 24 -15 30 65 30 73 0 83 -3 105 -25 29 -28 32 -70 10 -102 -14 -20 -14
-25 3 -52 10 -17 21 -28 24 -25 3 3 4 31 1 62 -4 50 -2 62 21 95 14 21 26 41
26 46 0 7 101 4 128 -4 7 -3 12 -22 13 -47 l0 -43 17 38 c10 22 22 39 27 39
11 -1 26 24 46 75 7 17 17 29 23 26 10 -7 4 22 -25 118 -20 67 -70 129 -103
129 -8 0 -18 5 -21 10 -8 13 84 389 100 410 16 20 38 105 37 141 0 17 -6 37
-13 45 -15 18 -49 18 -63 0 -9 -12 -24 -11 -101 9 -104 26 -194 33 -320 23z
m63 -13 c-7 -8 -87 -9 -95 -2 -3 4 18 7 47 7 29 0 51 -2 48 -5z m175 -1 c20
-4 37 -11 37 -16 0 -6 -8 -7 -17 -3 -10 4 -43 11 -73 15 -41 6 -46 8 -20 9 19
0 52 -2 73 -5z m-328 -19 c-62 -17 -69 -17 -30 0 17 8 41 14 55 14 15 0 5 -6
-25 -14z m473 -16 c40 -15 23 -17 -25 -3 -27 8 -52 16 -58 19 -16 8 58 -7 83
-16z m62 -16 c0 -5 -14 -28 -30 -53 -34 -52 -36 -51 -14 13 9 26 22 47 30 47
8 0 14 -3 14 -7z m-288 -281 c10 -8 15 -19 12 -23 -3 -5 0 -9 5 -9 24 0 9 -17
-25 -28 -28 -8 -35 -8 -31 2 3 7 -1 13 -8 13 -7 0 -11 -6 -8 -14 4 -11 0 -11
-22 -3 -15 6 -32 13 -36 16 -15 9 13 53 40 62 29 10 48 6 73 -16z m-105 -116
c16 4 36 14 46 22 16 14 19 14 30 0 17 -22 67 -29 74 -11 5 13 7 13 16 -2 11
-21 -3 -37 -35 -39 -17 -1 -24 -8 -26 -27 -3 -22 -9 -28 -38 -31 -43 -5 -58 4
-51 31 3 12 1 24 -4 27 -5 3 -7 10 -3 15 3 6 -3 5 -14 -2 -11 -7 -27 -9 -38
-4 -11 4 -14 9 -8 12 7 2 10 14 8 26 -4 22 -4 22 5 -1 9 -18 16 -21 38 -16z
m99 -108 c-9 -5 -14 -13 -11 -18 6 -10 -55 6 -67 18 -4 4 15 8 44 9 36 0 46
-2 34 -9z m-101 -19 c4 -6 13 -8 21 -5 7 3 20 -4 28 -15 8 -11 17 -16 20 -11
3 6 0 13 -6 16 -7 3 -3 3 9 0 12 -3 31 0 43 6 27 15 26 -2 -5 -38 -37 -44 -89
-29 -124 36 -12 22 1 32 14 11z m242 -91 c-3 -8 -6 -5 -6 6 -1 11 2 17 5 13 3
-3 4 -12 1 -19z m-62 -188 c-3 -5 -21 -9 -38 -9 l-32 2 35 7 c19 4 36 8 38 9
2 0 0 -3 -3 -9z m60 -30 c16 -16 24 -30 17 -30 -7 0 -9 -7 -5 -17 5 -14 1 -13
-24 5 -17 12 -36 22 -43 22 -6 0 -8 5 -5 11 5 7 15 5 32 -6 34 -23 37 -14 7
18 -14 15 -21 27 -16 27 4 0 21 -13 37 -30z m-70 0 c-3 -5 -21 -10 -38 -10
-24 0 -28 3 -17 10 20 13 63 13 55 0z m-5 -29 c0 -5 -11 -11 -25 -13 -28 -6
-35 8 -7 15 28 8 32 7 32 -2z m30 -29 c0 -4 -8 -8 -17 -8 -10 -1 -26 -4 -35
-9 -11 -4 -18 -3 -18 3 0 9 20 17 58 21 6 0 12 -3 12 -7z"/>
<path d="M749 884 c-11 -30 -7 -37 22 -39 27 -2 32 8 18 39 -15 33 -27 33 -40
0z"/>
<path d="M254 364 c13 -12 16 -39 16 -129 0 -98 -2 -115 -17 -124 -14 -8 -4
-10 42 -10 46 0 56 2 43 10 -13 7 -18 23 -18 59 l0 50 34 0 c51 0 86 33 86 80
0 59 -33 80 -127 80 -68 0 -73 -1 -59 -16z m126 -39 c12 -32 -2 -71 -29 -78
-27 -7 -31 -1 -31 55 0 45 2 48 25 48 18 0 28 -7 35 -25z"/>
<path d="M509 373 c-1 -5 -1 -17 0 -28 2 -27 -55 -194 -74 -215 -13 -14 -11
-16 21 -18 31 -2 35 0 30 16 -4 11 -2 31 3 46 9 21 17 26 45 26 29 0 36 -4 45
-31 8 -24 8 -36 0 -46 -10 -11 4 -13 86 -12 79 2 95 4 82 14 -19 14 -25 115
-7 115 5 0 24 -25 41 -55 17 -30 36 -58 42 -62 16 -10 67 -12 67 -2 0 5 -4 9
-9 9 -5 0 -24 26 -43 58 -35 58 -35 59 -17 81 27 33 24 66 -7 90 -21 16 -41
21 -92 21 -54 0 -63 -2 -53 -14 8 -9 11 -51 9 -122 -2 -89 -6 -109 -18 -109
-10 0 -25 28 -43 80 -56 163 -57 165 -83 165 -13 0 -24 -3 -25 -7z m274 -45
c15 -23 -6 -68 -33 -68 -17 0 -20 7 -20 46 0 41 2 45 21 42 12 -2 27 -11 32
-20z m-235 -65 c10 -31 10 -33 -14 -33 -27 0 -29 6 -14 46 12 31 13 30 28 -13z"/>
<path d="M740 305 c0 -37 10 -44 30 -20 14 17 4 55 -16 55 -9 0 -14 -11 -14
-35z"/>
<path d="M922 365 c-67 -48 -68 -162 0 -209 49 -35 148 -13 148 31 0 14 -2 14
-18 0 -19 -17 -68 -22 -88 -9 -48 32 -43 162 7 175 10 3 30 -4 45 -15 l26 -21
-4 29 c-3 27 -7 29 -48 32 -29 2 -53 -3 -68 -13z"/>
<path d="M1145 357 c7 -25 -58 -220 -75 -225 -20 -7 -9 -18 20 -20 25 -2 30 1
30 20 0 54 10 68 49 68 35 0 39 -3 49 -37 10 -33 9 -40 -5 -50 -14 -11 -8 -13
41 -13 51 0 56 2 43 15 -9 8 -34 71 -57 140 -41 122 -42 125 -71 125 -26 0
-29 -3 -24 -23z m40 -99 c6 -25 4 -28 -18 -28 -24 0 -25 1 -14 35 11 38 22 36
32 -7z"/>
<path d="M950 320 c-6 -12 -10 -33 -8 -48 l3 -27 27 26 c15 15 29 25 32 22 13
-13 26 9 16 28 -14 25 -56 25 -70 -1z"/>
</g>
</svg>
